<svg width="386" height="300" viewBox="0 0 386 300" fill="none" xmlns="http://www.w3.org/2000/svg">
<path d="M114.435 71.1952C110.252 61.5448 108.967 56.4153 110.237 41.7948C111.429 28.0797 123.708 20.0549 141.396 9.40955C156.052 0.588566 173.303 1.64288 182.475 1.96166C186.966 2.11774 191.358 8.99417 197.468 19.1179C207.203 35.2479 205.886 48.3202 206.041 48.6583C211.416 60.4173 229.65 30.9611 247.753 28.3867C259.718 26.6851 277.651 27.0874 290.354 27.8796C310.216 29.1181 322.715 35.424 332.36 41.365C340.417 46.3271 344.006 53.4593 346.739 59.0767C349.719 65.1998 349.174 73.0886 348.696 80.9567C348.191 89.253 342.132 98.195 332.027 106.078C320.754 114.872 308.621 111.767 305.563 111.289C304.338 111.098 304.1 109.855 303.936 108.724C303.772 107.594 303.772 106.319 304.887 105.662C307.827 103.932 322.328 109.149 342.909 117.182C357.828 123.004 368.436 134.565 377.767 146.616C384.83 155.736 383.95 166.463 383.153 174.978C382.414 182.871 376.251 188.062 369.991 191.917C363.025 196.206 353.415 198.379 336.278 199.345C324.574 200.005 306.708 199.674 297.671 200.311C288.634 200.949 288.953 202.224 292.464 207.663C295.976 213.101 302.67 222.665 307.075 230.938C314.71 245.28 315.682 257.905 315.05 267.705C314.741 272.49 311.867 276.548 309.123 279.799C306.38 283.05 303.192 285.281 294.855 287.387C286.519 289.493 273.13 291.406 261.929 292.231C250.728 293.057 242.121 292.739 227.805 289.865C213.489 286.991 193.724 281.572 181.152 277.664C163.573 272.201 157.596 267.313 156.62 264.256C155.814 261.729 162.716 262.464 166.092 263.102C173.279 264.459 171.429 277.891 169.994 283.832C168.211 291.216 155.084 295.289 140.145 297.868C132.933 299.113 126.162 297.897 119.685 296.453C113.208 295.009 107.151 292.777 91.7577 284.615C76.3645 276.452 51.8183 262.425 37.2606 253.765C18.6117 242.671 13.3423 237.048 10.6086 232.552C8.09671 228.42 7.85544 222.568 8.16939 215.985C8.51486 208.741 14.5885 202.601 22.2779 197.297C42.8502 183.109 59.3145 191.617 68.0085 193.38C71.1084 194.009 70.9645 196.1 70.6457 197.399C70.3269 198.698 69.6894 199.654 68.2452 200.306C64.7803 201.871 60.039 201.606 55.2235 201.446C49.7524 201.265 37.8885 193.308 22.6112 179.967C11.7783 170.508 7.22754 160.116 3.85135 150.002C0.263306 139.253 2.35888 125.369 6.53202 111.864C9.72322 101.537 18.1144 95.0555 26.4655 89.1097C34.3902 83.4676 40.3615 80.2273 42.6123 78.6093C43.4047 78.0396 44.2255 80.179 43.1194 82.9128C40.2428 90.0226 34.2757 95.0072 30.8995 97.741C29.4578 98.9084 28.4796 99.5184 27.19 98.253C17.524 88.768 20.7323 67.0993 23.1328 52.5658C24.0824 46.8166 29.407 43.8379 34.6959 41.2684C42.389 37.5307 49.6931 37.385 53.8662 38.0226C70.6275 40.5833 86.0728 59.2554 90.2701 67.4616C91.7986 70.45 94.139 71.8328 96.3849 73.1175C99.1251 74.685 102.186 75.0592 104.437 74.581C105.412 74.1029 106.05 73.1465 106.856 72.3351C107.663 71.5236 108.619 70.8861 111.537 68.2972" stroke="#4DDEFF" stroke-width="3" stroke-linecap="round"/>
</svg>
