<svg width="250" height="188" viewBox="0 0 250 188" fill="none" xmlns="http://www.w3.org/2000/svg">
<path d="M59.9393 50.4468C64.7597 33.0781 73.3958 22.8191 89.1175 11.8839C106.686 -0.335718 123.667 2.1466 128.651 2.62477C132.316 2.97634 139.412 13.6517 149.546 30.5181C154.289 38.4134 155.535 46.4282 162.896 48.1381C170.257 49.8479 183.008 45.385 196.112 43.2453C222.006 39.017 237.984 42.7091 241.843 45.2739C245.698 47.8357 246.368 56.8321 247.658 69.1873C249.239 84.3293 245.431 96.1388 241.099 102.244C236.696 108.448 227.116 113.527 214.756 118.357C192.328 127.121 184.245 117.111 182.632 117.734C169.867 122.664 187.771 142.497 186.979 150.689C186.143 159.331 174.952 167.285 160.201 176.124C151.723 181.204 139.074 183.369 130.124 184.852C107.609 188.582 98.2897 182.48 93.1409 179.751C89.6021 177.876 89.5667 173.149 86.8522 171.048C81.3157 166.762 71.2512 174.095 61.7844 173.617C50.0134 173.023 37.1416 167.372 25.0907 159.663C14.1469 152.663 7.47562 145.463 3.93521 140.324C0.876942 135.885 1.97905 129.369 2.45722 123.105C2.92273 117.006 9.34 107.19 17.6959 94.97C28.5559 79.088 44.7634 80.0742 51.0424 80.3881C53.2663 80.4993 53.1773 82.6148 52.3803 83.5953C50.664 85.7068 44.8407 85.223 38.8901 84.426C30.0786 83.2459 27.4429 62.1548 26.6073 48.3941C26.2559 42.6071 29.0272 38.2269 29.6647 35.4931C30.8434 30.4391 39.6146 30.4892 46.0723 30.4795C51.5447 34.3242 56.7129 39.8111 57.8382 41.7383C58.3261 42.7091 58.6449 43.6655 59.9393 46.5828" stroke="#4DDEFF" stroke-width="3" stroke-linecap="round"/>
</svg>
